<svg style="fill-rule:evenodd;clip-rule:evenodd;stroke-linejoin:round;stroke-miterlimit:1.41421" viewBox="0 0 24 24" xml:space="preserve" xmlns="http://www.w3.org/2000/svg"><path style="fill:none" d="M0 0h24v24H0z"/><path d="M4.93 4.93A9.969 9.969 0 0 1 12 2c2.76 0 5.26 1.12 7.07 2.93l-2.828 2.828A5.981 5.981 0 0 0 12 6a5.981 5.981 0 0 0-4.242 1.758L4.93 4.93Z" style="fill:#eb4134"/><path d="m16.242 16.242 2.828 2.828A9.969 9.969 0 0 1 12 22c-2.76 0-5.26-1.12-7.07-2.93l2.828-2.828A5.981 5.981 0 0 0 12 18a5.981 5.981 0 0 0 4.242-1.758Z" style="fill:#34aa51"/><path d="m4.93 4.93 2.828 2.828A5.981 5.981 0 0 0 6 12c0 1.656.672 3.156 1.758 4.242L4.93 19.07A9.969 9.969 0 0 1 2 12c0-2.76 1.12-5.26 2.93-7.07Z" style="fill:#fbbe04"/><path d="M12 10h9.8a10.057 10.057 0 0 1 0 4 9.992 9.992 0 0 1-2.73 5.07l-2.828-2.828A6 6 0 0 0 17.658 14H12v-4Z" style="fill:#4186f7"/></svg>