<svg    viewBox="0 0 47 44" fill="none" xmlns="http://www.w3.org/2000/svg" >

    <path
      d="M43,18.9c-1-2.3-1.6-4.8-1.5-7.3c0.2-2.3,1.1-4.4,2-6.5c-1.6,1.6-2.8,3.7-3.2,6c-0.3,1.8,0.1,3.7,0.6,5.5
		c0.6,1.9,1.6,3.7,2.5,5.5c0.9,1.7,1.9,3.5,1.7,5.5C46,24.6,44,21.4,43,18.9z"
    />
    <path d="M32.4,16.4c0.3,0,0.6-0.3,0.6-0.6c0-0.4-0.3-0.6-0.6-0.6s-0.6,0.3-0.6,0.6C31.8,16.1,32.1,16.4,32.4,16.4z" />
    <path
      d="M21.9,17.9C21.9,17.9,21.9,17.9,21.9,17.9c-0.3-0.2-0.5-0.3-0.6-0.4c1-2.1,2.1-4.1,3.1-6.3
		c0.8-1.8,1.5-3.7,1.6-5.7c0.1-2-0.4-4.1-1.7-5.5c1.4,2.4,1.2,5.5,0.2,8c-1.1,2.6-2.6,4.9-4.1,7.3c-2.1,3.5-4.3,7.3-4.7,11.6
		c-0.4,5.1,2.2,10.5,5.1,14.4c0.3,0.4,0.6,0.8,0.9,1.1c-0.8-1.8-1.5-3.5-2.1-5.3c-0.9-2.6-1.7-5.3-1.9-8.1
		c-0.2-3.7,1.4-7.1,2.9-10.3c0-0.1,0.1-0.1,0.1-0.2c0.7,0.2,4.1,1.5,7,5.3c3.3,4.3,3.7,20,3.7,20s0-11.4,0.2-12.7
		c0.4-3.1,1.4-4.7,5-5.5c3.6-0.8,7.5-0.9,7.5-0.9s-6.2-1.2-12-2.7C27.7,21.1,23.7,18.9,21.9,17.9z"
    />
    <path
      d="M15.6,10.9c-3.8-1.9-6.2-3.7-6.2-3.7l-0.9,2c0,0,1.7,1.2,4.5,2.6C13.9,11.5,14.7,11.1,15.6,10.9z"
      fill="#76B72A"
    />
    <path
      d="M45.9,12.4c0,0,3,2.7-9.6,3.8c-5.8,0.5-12.1-1.4-17.1-3.6c-0.9,0.2-1.8,0.5-2.8,0.9c5.2,2.2,12.4,4.5,20.1,4.1
		C51.6,17,45.9,12.4,45.9,12.4z"
      fill="#76B72A"
    />
    <path
      d="M0,15.9c0,0,3.9-0.1,7.4-1.4s8.5-3.6,11.4-4.1s3.8-0.3,3.8-0.3l-0.4,1.4c0,0-5.3,1-8.7,2.8s-9.9,4.3-12.9,4.5
	C0.3,16.8,0,15.9,0,15.9z"
      fill="#76B72A"
    />
  </svg>