<svg   viewBox="0 0 54 16" fill="none" xmlns="http://www.w3.org/2000/svg" >
<!-- <rect width="46.6667" height="44" fill="url(#pattern0)"/> -->
 <path d="M0.402832 15.4043V0H1.48088L7.69044 9.10938L13.8892 0H14.9781V15.4043H13.8245V2.03027L7.712 10.8926H7.62576L1.50244 2.03027V15.4043H0.402832Z" />
    <path d="M20.3234 9.79688C20.3234 9.01628 20.4708 8.2679 20.7654 7.55176C21.0601 6.83561 21.459 6.21256 21.9621 5.68262C22.4652 5.14551 23.0797 4.7194 23.8055 4.4043C24.5314 4.08203 25.304 3.9209 26.1234 3.9209C27.2086 3.9209 28.1932 4.18945 29.0772 4.72656C29.9684 5.25651 30.6583 5.97266 31.1471 6.875C31.643 7.77018 31.8909 8.74414 31.8909 9.79688C31.8909 10.8424 31.643 11.8128 31.1471 12.708C30.6512 13.6032 29.954 14.3229 29.0556 14.8672C28.1645 15.4043 27.1727 15.6729 26.0802 15.6729C25.2681 15.6729 24.5027 15.5153 23.784 15.2002C23.0653 14.8851 22.4544 14.4626 21.9513 13.9326C21.4482 13.4027 21.0493 12.7796 20.7547 12.0635C20.4672 11.3402 20.3234 10.5846 20.3234 9.79688ZM21.4877 9.79688C21.4877 11.1504 21.9333 12.2998 22.8245 13.2451C23.7229 14.1833 24.8225 14.6523 26.1234 14.6523C26.9427 14.6523 27.7045 14.4375 28.4088 14.0078C29.1131 13.571 29.6737 12.9801 30.0906 12.2354C30.5074 11.4906 30.7158 10.6777 30.7158 9.79688C30.7158 8.45052 30.2631 7.30469 29.3575 6.35938C28.4519 5.4069 27.3595 4.93066 26.0802 4.93066C25.2465 4.93066 24.4775 5.14909 23.7732 5.58594C23.0689 6.01562 22.5119 6.60645 22.1022 7.3584C21.6926 8.10319 21.4877 8.91602 21.4877 9.79688Z" />
    <path d="M36.9776 15.4043V4.18945H38.0664V6.1875C38.2748 5.85807 38.4832 5.57161 38.6917 5.32812C38.9001 5.08464 39.1516 4.85189 39.4463 4.62988C39.7482 4.40072 40.0967 4.22526 40.492 4.10352C40.8945 3.98177 41.3365 3.9209 41.818 3.9209C42.7379 3.9209 43.5141 4.14648 44.1466 4.59766C44.7862 5.04167 45.275 5.62174 45.6127 6.33789C46.5542 4.72656 47.909 3.9209 49.677 3.9209C51.0066 3.9209 52.0595 4.34701 52.8357 5.19922C53.6119 6.05143 54 7.18652 54 8.60449V15.4043H52.9219V8.7334C52.9219 7.53027 52.6272 6.59212 52.0379 5.91895C51.4486 5.24577 50.6329 4.90918 49.5907 4.90918C48.5989 4.90918 47.7581 5.26725 47.0681 5.9834C46.3782 6.69954 46.0332 7.66276 46.0332 8.87305V15.4043H44.9551V8.66895C44.9551 7.50879 44.6569 6.59212 44.0603 5.91895C43.471 5.24577 42.6733 4.90918 41.6671 4.90918C40.6609 4.90918 39.8092 5.29948 39.1121 6.08008C38.415 6.85352 38.0664 7.80599 38.0664 8.9375V15.4043H36.9776Z" />
  </svg>