<svg  viewBox="0 0 49 18" fill="none" xmlns="http://www.w3.org/2000/svg" >

    <path d="M0.51123 14.7549L1.25508 13.8955C2.1319 14.6976 2.99793 15.2812 3.85318 15.6465C4.70843 16.0046 5.69305 16.1836 6.80703 16.1836C7.95695 16.1836 8.89486 15.8936 9.62074 15.3135C10.3466 14.7334 10.7096 13.9886 10.7096 13.0791C10.7096 12.5062 10.591 12.0299 10.3538 11.6504C10.1238 11.2708 9.68542 10.9271 9.0386 10.6191C8.39895 10.3112 7.50058 10.0391 6.34347 9.80273C4.48204 9.42318 3.14526 8.89681 2.33313 8.22363C1.52819 7.54329 1.12572 6.6123 1.12572 5.43066C1.12572 4.27767 1.59647 3.31445 2.53796 2.54102C3.47946 1.76758 4.66531 1.38086 6.09552 1.38086C7.18795 1.38086 8.14022 1.53125 8.95235 1.83203C9.76448 2.12565 10.5766 2.59831 11.3887 3.25L10.6664 4.15234C9.95494 3.53646 9.22546 3.09245 8.47801 2.82031C7.73775 2.54818 6.92921 2.41211 6.0524 2.41211C4.93123 2.41211 4.02208 2.69499 3.32494 3.26074C2.6278 3.81934 2.27923 4.52116 2.27923 5.36621C2.27923 5.94629 2.39422 6.42969 2.62421 6.81641C2.86138 7.19596 3.31056 7.55046 3.97177 7.87988C4.64016 8.20215 5.57447 8.48503 6.77469 8.72852C8.56425 9.09375 9.85791 9.61296 10.6557 10.2861C11.4606 10.9593 11.8631 11.8688 11.8631 13.0146C11.8631 14.2464 11.3816 15.2562 10.4185 16.0439C9.45544 16.8245 8.22647 17.2148 6.73157 17.2148C5.51697 17.2148 4.41017 17.0143 3.41118 16.6133C2.41938 16.2122 1.45273 15.5928 0.51123 14.7549Z" />
    <path d="M17.3055 17V0.94043H18.3836V17H17.3055Z" />
    <path d="M24.4405 2.85254V1.38086H25.7772V2.85254H24.4405ZM24.5698 17V5.78516H25.6479V17H24.5698Z" />
    <path d="M31.6724 17V5.78516H32.7613V7.7832C32.9697 7.45378 33.1781 7.16732 33.3865 6.92383C33.595 6.68034 33.8465 6.44759 34.1412 6.22559C34.443 5.99642 34.7916 5.82096 35.1869 5.69922C35.5894 5.57747 36.0314 5.5166 36.5129 5.5166C37.4328 5.5166 38.209 5.74219 38.8415 6.19336C39.4811 6.63737 39.9698 7.21745 40.3076 7.93359C41.2491 6.32227 42.6039 5.5166 44.3719 5.5166C45.7015 5.5166 46.7543 5.94271 47.5305 6.79492C48.3067 7.64714 48.6948 8.78223 48.6948 10.2002V17H47.6168V10.3291C47.6168 9.12598 47.3221 8.18783 46.7328 7.51465C46.1434 6.84147 45.3277 6.50488 44.2856 6.50488C43.2938 6.50488 42.4529 6.86296 41.763 7.5791C41.073 8.29525 40.7281 9.25846 40.7281 10.4688V17H39.65V10.2646C39.65 9.10449 39.3517 8.18783 38.7552 7.51465C38.1659 6.84147 37.3681 6.50488 36.362 6.50488C35.3558 6.50488 34.5041 6.89518 33.807 7.67578C33.1098 8.44922 32.7613 9.40169 32.7613 10.5332V17H31.6724Z" />
  </svg>